G04 start of page 17 for group -3984 idx -3984 *
G04 Title: (unknown), fab *
G04 Creator: pcb 1.99z *
G04 CreationDate: Tue 21 Jul 2015 11:18:01 AM GMT UTC *
G04 For: david *
G04 Format: Gerber/RS-274X *
G04 PCB-Dimensions (mil): 3600.00 1200.00 *
G04 PCB-Coordinate-Origin: lower left *
%MOIN*%
%FSLAX25Y25*%
%LNFAB*%
%ADD88C,0.0075*%
%ADD87C,0.0060*%
%ADD86C,0.0080*%
%ADD85C,0.0100*%
G54D85*X360000Y119984D02*X16D01*
X0Y120000D01*
Y6D01*
X360000D01*
Y119984D01*
G54D86*X326871Y50019D02*X329271Y47619D01*
X326871D02*X329271Y50019D01*
X326871Y90019D02*X329271Y87619D01*
X326871D02*X329271Y90019D01*
X13800Y147450D02*X16200Y145050D01*
X13800D02*X16200Y147450D01*
G54D87*X135000Y148500D02*X136500Y145500D01*
X138000Y148500D01*
X136500Y145500D02*Y142500D01*
X139800Y145800D02*X142050D01*
X139800Y142500D02*X142800D01*
X139800Y148500D02*Y142500D01*
Y148500D02*X142800D01*
X147600D02*X148350Y147750D01*
X145350Y148500D02*X147600D01*
X144600Y147750D02*X145350Y148500D01*
X144600Y147750D02*Y146250D01*
X145350Y145500D01*
X147600D01*
X148350Y144750D01*
Y143250D01*
X147600Y142500D02*X148350Y143250D01*
X145350Y142500D02*X147600D01*
X144600Y143250D02*X145350Y142500D01*
X98000Y147750D02*X98750Y148500D01*
X101000D01*
X101750Y147750D01*
Y146250D01*
X98000Y142500D02*X101750Y146250D01*
X98000Y142500D02*X101750D01*
X45000Y143250D02*X45750Y142500D01*
X45000Y147750D02*Y143250D01*
Y147750D02*X45750Y148500D01*
X47250D01*
X48000Y147750D01*
Y143250D01*
X47250Y142500D02*X48000Y143250D01*
X45750Y142500D02*X47250D01*
X45000Y144000D02*X48000Y147000D01*
X49800Y142500D02*X50550D01*
X52350Y143250D02*X53100Y142500D01*
X52350Y147750D02*Y143250D01*
Y147750D02*X53100Y148500D01*
X54600D01*
X55350Y147750D01*
Y143250D01*
X54600Y142500D02*X55350Y143250D01*
X53100Y142500D02*X54600D01*
X52350Y144000D02*X55350Y147000D01*
X57150Y143250D02*X57900Y142500D01*
X57150Y144450D02*Y143250D01*
Y144450D02*X58200Y145500D01*
X59100D01*
X60150Y144450D01*
Y143250D01*
X59400Y142500D02*X60150Y143250D01*
X57900Y142500D02*X59400D01*
X57150Y146550D02*X58200Y145500D01*
X57150Y147750D02*Y146550D01*
Y147750D02*X57900Y148500D01*
X59400D01*
X60150Y147750D01*
Y146550D01*
X59100Y145500D02*X60150Y146550D01*
X61950Y147300D02*X63150Y148500D01*
Y142500D01*
X61950D02*X64200D01*
X308071Y70419D02*Y67219D01*
X306471Y68819D02*X309671D01*
X308071Y60419D02*Y57219D01*
X306471Y58819D02*X309671D01*
X15000Y162850D02*Y159650D01*
X13400Y161250D02*X16600D01*
X135000Y163500D02*X136500Y160500D01*
X138000Y163500D01*
X136500Y160500D02*Y157500D01*
X139800Y160800D02*X142050D01*
X139800Y157500D02*X142800D01*
X139800Y163500D02*Y157500D01*
Y163500D02*X142800D01*
X147600D02*X148350Y162750D01*
X145350Y163500D02*X147600D01*
X144600Y162750D02*X145350Y163500D01*
X144600Y162750D02*Y161250D01*
X145350Y160500D01*
X147600D01*
X148350Y159750D01*
Y158250D01*
X147600Y157500D02*X148350Y158250D01*
X145350Y157500D02*X147600D01*
X144600Y158250D02*X145350Y157500D01*
X98000Y162750D02*X98750Y163500D01*
X101000D01*
X101750Y162750D01*
Y161250D01*
X98000Y157500D02*X101750Y161250D01*
X98000Y157500D02*X101750D01*
X45000Y158250D02*X45750Y157500D01*
X45000Y162750D02*Y158250D01*
Y162750D02*X45750Y163500D01*
X47250D01*
X48000Y162750D01*
Y158250D01*
X47250Y157500D02*X48000Y158250D01*
X45750Y157500D02*X47250D01*
X45000Y159000D02*X48000Y162000D01*
X49800Y157500D02*X50550D01*
X52350Y158250D02*X53100Y157500D01*
X52350Y162750D02*Y158250D01*
Y162750D02*X53100Y163500D01*
X54600D01*
X55350Y162750D01*
Y158250D01*
X54600Y157500D02*X55350Y158250D01*
X53100Y157500D02*X54600D01*
X52350Y159000D02*X55350Y162000D01*
X57150Y162750D02*X57900Y163500D01*
X59400D01*
X60150Y162750D01*
X59400Y157500D02*X60150Y158250D01*
X57900Y157500D02*X59400D01*
X57150Y158250D02*X57900Y157500D01*
Y160800D02*X59400D01*
X60150Y162750D02*Y161550D01*
Y160050D02*Y158250D01*
Y160050D02*X59400Y160800D01*
X60150Y161550D02*X59400Y160800D01*
X61950Y163500D02*X64950D01*
X61950D02*Y160500D01*
X62700Y161250D01*
X64200D01*
X64950Y160500D01*
Y158250D01*
X64200Y157500D02*X64950Y158250D01*
X62700Y157500D02*X64200D01*
X61950Y158250D02*X62700Y157500D01*
X199803Y75315D02*Y73715D01*
Y75315D02*X201190Y76115D01*
X199803Y75315D02*X198416Y76115D01*
X208661Y108779D02*Y107179D01*
Y108779D02*X210048Y109579D01*
X208661Y108779D02*X207274Y109579D01*
X207677Y78267D02*Y76667D01*
Y78267D02*X209064Y79067D01*
X207677Y78267D02*X206291Y79067D01*
X218504Y78267D02*Y76667D01*
Y78267D02*X219891Y79067D01*
X218504Y78267D02*X217117Y79067D01*
X15000Y176250D02*Y174650D01*
Y176250D02*X16387Y177050D01*
X15000Y176250D02*X13613Y177050D01*
X135000Y178500D02*X136500Y175500D01*
X138000Y178500D01*
X136500Y175500D02*Y172500D01*
X139800Y175800D02*X142050D01*
X139800Y172500D02*X142800D01*
X139800Y178500D02*Y172500D01*
Y178500D02*X142800D01*
X147600D02*X148350Y177750D01*
X145350Y178500D02*X147600D01*
X144600Y177750D02*X145350Y178500D01*
X144600Y177750D02*Y176250D01*
X145350Y175500D01*
X147600D01*
X148350Y174750D01*
Y173250D01*
X147600Y172500D02*X148350Y173250D01*
X145350Y172500D02*X147600D01*
X144600Y173250D02*X145350Y172500D01*
X98000Y174750D02*X101000Y178500D01*
X98000Y174750D02*X101750D01*
X101000Y178500D02*Y172500D01*
X45000Y173250D02*X45750Y172500D01*
X45000Y177750D02*Y173250D01*
Y177750D02*X45750Y178500D01*
X47250D01*
X48000Y177750D01*
Y173250D01*
X47250Y172500D02*X48000Y173250D01*
X45750Y172500D02*X47250D01*
X45000Y174000D02*X48000Y177000D01*
X49800Y172500D02*X50550D01*
X52350Y173250D02*X53100Y172500D01*
X52350Y177750D02*Y173250D01*
Y177750D02*X53100Y178500D01*
X54600D01*
X55350Y177750D01*
Y173250D01*
X54600Y172500D02*X55350Y173250D01*
X53100Y172500D02*X54600D01*
X52350Y174000D02*X55350Y177000D01*
X57150Y177750D02*X57900Y178500D01*
X59400D01*
X60150Y177750D01*
X59400Y172500D02*X60150Y173250D01*
X57900Y172500D02*X59400D01*
X57150Y173250D02*X57900Y172500D01*
Y175800D02*X59400D01*
X60150Y177750D02*Y176550D01*
Y175050D02*Y173250D01*
Y175050D02*X59400Y175800D01*
X60150Y176550D02*X59400Y175800D01*
X61950Y173250D02*X62700Y172500D01*
X61950Y177750D02*Y173250D01*
Y177750D02*X62700Y178500D01*
X64200D01*
X64950Y177750D01*
Y173250D01*
X64200Y172500D02*X64950Y173250D01*
X62700Y172500D02*X64200D01*
X61950Y174000D02*X64950Y177000D01*
X3000Y193500D02*X3750Y192750D01*
X750Y193500D02*X3000D01*
X0Y192750D02*X750Y193500D01*
X0Y192750D02*Y191250D01*
X750Y190500D01*
X3000D01*
X3750Y189750D01*
Y188250D01*
X3000Y187500D02*X3750Y188250D01*
X750Y187500D02*X3000D01*
X0Y188250D02*X750Y187500D01*
X5550Y190500D02*Y188250D01*
X6300Y187500D01*
X8550Y190500D02*Y186000D01*
X7800Y185250D02*X8550Y186000D01*
X6300Y185250D02*X7800D01*
X5550Y186000D02*X6300Y185250D01*
Y187500D02*X7800D01*
X8550Y188250D01*
X11100Y189750D02*Y187500D01*
Y189750D02*X11850Y190500D01*
X12600D01*
X13350Y189750D01*
Y187500D01*
Y189750D02*X14100Y190500D01*
X14850D01*
X15600Y189750D01*
Y187500D01*
X10350Y190500D02*X11100Y189750D01*
X17400Y193500D02*Y187500D01*
Y188250D02*X18150Y187500D01*
X19650D01*
X20400Y188250D01*
Y189750D02*Y188250D01*
X19650Y190500D02*X20400Y189750D01*
X18150Y190500D02*X19650D01*
X17400Y189750D02*X18150Y190500D01*
X22200Y189750D02*Y188250D01*
Y189750D02*X22950Y190500D01*
X24450D01*
X25200Y189750D01*
Y188250D01*
X24450Y187500D02*X25200Y188250D01*
X22950Y187500D02*X24450D01*
X22200Y188250D02*X22950Y187500D01*
X27000Y193500D02*Y188250D01*
X27750Y187500D01*
X0Y184250D02*X29250D01*
X41750Y193500D02*Y187500D01*
X43700Y193500D02*X44750Y192450D01*
Y188550D01*
X43700Y187500D02*X44750Y188550D01*
X41000Y187500D02*X43700D01*
X41000Y193500D02*X43700D01*
G54D88*X46550Y192000D02*Y191850D01*
G54D87*Y189750D02*Y187500D01*
X50300Y190500D02*X51050Y189750D01*
X48800Y190500D02*X50300D01*
X48050Y189750D02*X48800Y190500D01*
X48050Y189750D02*Y188250D01*
X48800Y187500D01*
X51050Y190500D02*Y188250D01*
X51800Y187500D01*
X48800D02*X50300D01*
X51050Y188250D01*
X54350Y189750D02*Y187500D01*
Y189750D02*X55100Y190500D01*
X55850D01*
X56600Y189750D01*
Y187500D01*
Y189750D02*X57350Y190500D01*
X58100D01*
X58850Y189750D01*
Y187500D01*
X53600Y190500D02*X54350Y189750D01*
X60650Y187500D02*X61400D01*
X65900Y188250D02*X66650Y187500D01*
X65900Y192750D02*X66650Y193500D01*
X65900Y192750D02*Y188250D01*
X68450Y193500D02*X69950D01*
X69200D02*Y187500D01*
X68450D02*X69950D01*
X72500Y189750D02*Y187500D01*
Y189750D02*X73250Y190500D01*
X74000D01*
X74750Y189750D01*
Y187500D01*
X71750Y190500D02*X72500Y189750D01*
X77300Y190500D02*X79550D01*
X76550Y189750D02*X77300Y190500D01*
X76550Y189750D02*Y188250D01*
X77300Y187500D01*
X79550D01*
X81350Y193500D02*Y187500D01*
Y189750D02*X82100Y190500D01*
X83600D01*
X84350Y189750D01*
Y187500D01*
X86150Y193500D02*X86900Y192750D01*
Y188250D01*
X86150Y187500D02*X86900Y188250D01*
X41000Y184250D02*X88700D01*
X96050Y187500D02*X98000D01*
X95000Y188550D02*X96050Y187500D01*
X95000Y192450D02*Y188550D01*
Y192450D02*X96050Y193500D01*
X98000D01*
X99800Y189750D02*Y188250D01*
Y189750D02*X100550Y190500D01*
X102050D01*
X102800Y189750D01*
Y188250D01*
X102050Y187500D02*X102800Y188250D01*
X100550Y187500D02*X102050D01*
X99800Y188250D02*X100550Y187500D01*
X104600Y190500D02*Y188250D01*
X105350Y187500D01*
X106850D01*
X107600Y188250D01*
Y190500D02*Y188250D01*
X110150Y189750D02*Y187500D01*
Y189750D02*X110900Y190500D01*
X111650D01*
X112400Y189750D01*
Y187500D01*
X109400Y190500D02*X110150Y189750D01*
X114950Y193500D02*Y188250D01*
X115700Y187500D01*
X114200Y191250D02*X115700D01*
X95000Y184250D02*X117200D01*
X130750Y193500D02*Y187500D01*
X130000Y193500D02*X133000D01*
X133750Y192750D01*
Y191250D01*
X133000Y190500D02*X133750Y191250D01*
X130750Y190500D02*X133000D01*
X135550Y193500D02*Y188250D01*
X136300Y187500D01*
X140050Y190500D02*X140800Y189750D01*
X138550Y190500D02*X140050D01*
X137800Y189750D02*X138550Y190500D01*
X137800Y189750D02*Y188250D01*
X138550Y187500D01*
X140800Y190500D02*Y188250D01*
X141550Y187500D01*
X138550D02*X140050D01*
X140800Y188250D01*
X144100Y193500D02*Y188250D01*
X144850Y187500D01*
X143350Y191250D02*X144850D01*
X147100Y187500D02*X149350D01*
X146350Y188250D02*X147100Y187500D01*
X146350Y189750D02*Y188250D01*
Y189750D02*X147100Y190500D01*
X148600D01*
X149350Y189750D01*
X146350Y189000D02*X149350D01*
Y189750D02*Y189000D01*
X154150Y193500D02*Y187500D01*
X153400D02*X154150Y188250D01*
X151900Y187500D02*X153400D01*
X151150Y188250D02*X151900Y187500D01*
X151150Y189750D02*Y188250D01*
Y189750D02*X151900Y190500D01*
X153400D01*
X154150Y189750D01*
X157450Y190500D02*Y189750D01*
Y188250D02*Y187500D01*
X155950Y192750D02*Y192000D01*
Y192750D02*X156700Y193500D01*
X158200D01*
X158950Y192750D01*
Y192000D01*
X157450Y190500D02*X158950Y192000D01*
X130000Y184250D02*X160750D01*
X0Y208500D02*X3000D01*
X1500D02*Y202500D01*
X4800Y208500D02*Y202500D01*
Y204750D02*X5550Y205500D01*
X7050D01*
X7800Y204750D01*
Y202500D01*
X10350D02*X12600D01*
X9600Y203250D02*X10350Y202500D01*
X9600Y204750D02*Y203250D01*
Y204750D02*X10350Y205500D01*
X11850D01*
X12600Y204750D01*
X9600Y204000D02*X12600D01*
Y204750D02*Y204000D01*
X15150Y204750D02*Y202500D01*
Y204750D02*X15900Y205500D01*
X17400D01*
X14400D02*X15150Y204750D01*
X19950Y202500D02*X22200D01*
X19200Y203250D02*X19950Y202500D01*
X19200Y204750D02*Y203250D01*
Y204750D02*X19950Y205500D01*
X21450D01*
X22200Y204750D01*
X19200Y204000D02*X22200D01*
Y204750D02*Y204000D01*
X28950Y205500D02*X29700Y204750D01*
X27450Y205500D02*X28950D01*
X26700Y204750D02*X27450Y205500D01*
X26700Y204750D02*Y203250D01*
X27450Y202500D01*
X29700Y205500D02*Y203250D01*
X30450Y202500D01*
X27450D02*X28950D01*
X29700Y203250D01*
X33000Y204750D02*Y202500D01*
Y204750D02*X33750Y205500D01*
X35250D01*
X32250D02*X33000Y204750D01*
X37800Y202500D02*X40050D01*
X37050Y203250D02*X37800Y202500D01*
X37050Y204750D02*Y203250D01*
Y204750D02*X37800Y205500D01*
X39300D01*
X40050Y204750D01*
X37050Y204000D02*X40050D01*
Y204750D02*Y204000D01*
X44550Y207750D02*X45300Y208500D01*
X46800D01*
X47550Y207750D01*
X46800Y202500D02*X47550Y203250D01*
X45300Y202500D02*X46800D01*
X44550Y203250D02*X45300Y202500D01*
Y205800D02*X46800D01*
X47550Y207750D02*Y206550D01*
Y205050D02*Y203250D01*
Y205050D02*X46800Y205800D01*
X47550Y206550D02*X46800Y205800D01*
X55050Y208500D02*Y202500D01*
X54300D02*X55050Y203250D01*
X52800Y202500D02*X54300D01*
X52050Y203250D02*X52800Y202500D01*
X52050Y204750D02*Y203250D01*
Y204750D02*X52800Y205500D01*
X54300D01*
X55050Y204750D01*
G54D88*X56850Y207000D02*Y206850D01*
G54D87*Y204750D02*Y202500D01*
X59100Y207750D02*Y202500D01*
Y207750D02*X59850Y208500D01*
X60600D01*
X58350Y205500D02*X59850D01*
X62850Y207750D02*Y202500D01*
Y207750D02*X63600Y208500D01*
X64350D01*
X62100Y205500D02*X63600D01*
X66600Y202500D02*X68850D01*
X65850Y203250D02*X66600Y202500D01*
X65850Y204750D02*Y203250D01*
Y204750D02*X66600Y205500D01*
X68100D01*
X68850Y204750D01*
X65850Y204000D02*X68850D01*
Y204750D02*Y204000D01*
X71400Y204750D02*Y202500D01*
Y204750D02*X72150Y205500D01*
X73650D01*
X70650D02*X71400Y204750D01*
X76200Y202500D02*X78450D01*
X75450Y203250D02*X76200Y202500D01*
X75450Y204750D02*Y203250D01*
Y204750D02*X76200Y205500D01*
X77700D01*
X78450Y204750D01*
X75450Y204000D02*X78450D01*
Y204750D02*Y204000D01*
X81000Y204750D02*Y202500D01*
Y204750D02*X81750Y205500D01*
X82500D01*
X83250Y204750D01*
Y202500D01*
X80250Y205500D02*X81000Y204750D01*
X85800Y208500D02*Y203250D01*
X86550Y202500D01*
X85050Y206250D02*X86550D01*
X93750Y208500D02*Y202500D01*
X93000D02*X93750Y203250D01*
X91500Y202500D02*X93000D01*
X90750Y203250D02*X91500Y202500D01*
X90750Y204750D02*Y203250D01*
Y204750D02*X91500Y205500D01*
X93000D01*
X93750Y204750D01*
X96300D02*Y202500D01*
Y204750D02*X97050Y205500D01*
X98550D01*
X95550D02*X96300Y204750D01*
G54D88*X100350Y207000D02*Y206850D01*
G54D87*Y204750D02*Y202500D01*
X101850Y208500D02*Y203250D01*
X102600Y202500D01*
X104100Y208500D02*Y203250D01*
X104850Y202500D01*
X109800D02*X112050D01*
X112800Y203250D01*
X112050Y204000D02*X112800Y203250D01*
X109800Y204000D02*X112050D01*
X109050Y204750D02*X109800Y204000D01*
X109050Y204750D02*X109800Y205500D01*
X112050D01*
X112800Y204750D01*
X109050Y203250D02*X109800Y202500D01*
G54D88*X114600Y207000D02*Y206850D01*
G54D87*Y204750D02*Y202500D01*
X116100Y205500D02*X119100D01*
X116100Y202500D02*X119100Y205500D01*
X116100Y202500D02*X119100D01*
X121650D02*X123900D01*
X120900Y203250D02*X121650Y202500D01*
X120900Y204750D02*Y203250D01*
Y204750D02*X121650Y205500D01*
X123150D01*
X123900Y204750D01*
X120900Y204000D02*X123900D01*
Y204750D02*Y204000D01*
X126450Y202500D02*X128700D01*
X129450Y203250D01*
X128700Y204000D02*X129450Y203250D01*
X126450Y204000D02*X128700D01*
X125700Y204750D02*X126450Y204000D01*
X125700Y204750D02*X126450Y205500D01*
X128700D01*
X129450Y204750D01*
X125700Y203250D02*X126450Y202500D01*
X133950Y205500D02*Y203250D01*
X134700Y202500D01*
X136200D01*
X136950Y203250D01*
Y205500D02*Y203250D01*
X139500Y202500D02*X141750D01*
X142500Y203250D01*
X141750Y204000D02*X142500Y203250D01*
X139500Y204000D02*X141750D01*
X138750Y204750D02*X139500Y204000D01*
X138750Y204750D02*X139500Y205500D01*
X141750D01*
X142500Y204750D01*
X138750Y203250D02*X139500Y202500D01*
X145050D02*X147300D01*
X144300Y203250D02*X145050Y202500D01*
X144300Y204750D02*Y203250D01*
Y204750D02*X145050Y205500D01*
X146550D01*
X147300Y204750D01*
X144300Y204000D02*X147300D01*
Y204750D02*Y204000D01*
X152100Y208500D02*Y202500D01*
X151350D02*X152100Y203250D01*
X149850Y202500D02*X151350D01*
X149100Y203250D02*X149850Y202500D01*
X149100Y204750D02*Y203250D01*
Y204750D02*X149850Y205500D01*
X151350D01*
X152100Y204750D01*
G54D88*X156600Y207000D02*Y206850D01*
G54D87*Y204750D02*Y202500D01*
X158850Y204750D02*Y202500D01*
Y204750D02*X159600Y205500D01*
X160350D01*
X161100Y204750D01*
Y202500D01*
X158100Y205500D02*X158850Y204750D01*
X166350Y208500D02*Y203250D01*
X167100Y202500D01*
X165600Y206250D02*X167100D01*
X168600Y208500D02*Y202500D01*
Y204750D02*X169350Y205500D01*
X170850D01*
X171600Y204750D01*
Y202500D01*
G54D88*X173400Y207000D02*Y206850D01*
G54D87*Y204750D02*Y202500D01*
X175650D02*X177900D01*
X178650Y203250D01*
X177900Y204000D02*X178650Y203250D01*
X175650Y204000D02*X177900D01*
X174900Y204750D02*X175650Y204000D01*
X174900Y204750D02*X175650Y205500D01*
X177900D01*
X178650Y204750D01*
X174900Y203250D02*X175650Y202500D01*
X183150Y208500D02*Y203250D01*
X183900Y202500D01*
X187650Y205500D02*X188400Y204750D01*
X186150Y205500D02*X187650D01*
X185400Y204750D02*X186150Y205500D01*
X185400Y204750D02*Y203250D01*
X186150Y202500D01*
X188400Y205500D02*Y203250D01*
X189150Y202500D01*
X186150D02*X187650D01*
X188400Y203250D01*
X190950Y205500D02*Y203250D01*
X191700Y202500D01*
X193950Y205500D02*Y201000D01*
X193200Y200250D02*X193950Y201000D01*
X191700Y200250D02*X193200D01*
X190950Y201000D02*X191700Y200250D01*
Y202500D02*X193200D01*
X193950Y203250D01*
X195750Y204750D02*Y203250D01*
Y204750D02*X196500Y205500D01*
X198000D01*
X198750Y204750D01*
Y203250D01*
X198000Y202500D02*X198750Y203250D01*
X196500Y202500D02*X198000D01*
X195750Y203250D02*X196500Y202500D01*
X200550Y205500D02*Y203250D01*
X201300Y202500D01*
X202800D01*
X203550Y203250D01*
Y205500D02*Y203250D01*
X206100Y208500D02*Y203250D01*
X206850Y202500D01*
X205350Y206250D02*X206850D01*
X208350Y201000D02*X209850Y202500D01*
X214350Y203250D02*X215100Y202500D01*
X214350Y204450D02*Y203250D01*
Y204450D02*X215400Y205500D01*
X216300D01*
X217350Y204450D01*
Y203250D01*
X216600Y202500D02*X217350Y203250D01*
X215100Y202500D02*X216600D01*
X214350Y206550D02*X215400Y205500D01*
X214350Y207750D02*Y206550D01*
Y207750D02*X215100Y208500D01*
X216600D01*
X217350Y207750D01*
Y206550D01*
X216300Y205500D02*X217350Y206550D01*
X221850Y208500D02*Y202500D01*
Y204750D02*X222600Y205500D01*
X224100D01*
X224850Y204750D01*
Y202500D01*
X226650Y204750D02*Y203250D01*
Y204750D02*X227400Y205500D01*
X228900D01*
X229650Y204750D01*
Y203250D01*
X228900Y202500D02*X229650Y203250D01*
X227400Y202500D02*X228900D01*
X226650Y203250D02*X227400Y202500D01*
X231450Y208500D02*Y203250D01*
X232200Y202500D01*
X234450D02*X236700D01*
X233700Y203250D02*X234450Y202500D01*
X233700Y204750D02*Y203250D01*
Y204750D02*X234450Y205500D01*
X235950D01*
X236700Y204750D01*
X233700Y204000D02*X236700D01*
Y204750D02*Y204000D01*
X239250Y202500D02*X241500D01*
X242250Y203250D01*
X241500Y204000D02*X242250Y203250D01*
X239250Y204000D02*X241500D01*
X238500Y204750D02*X239250Y204000D01*
X238500Y204750D02*X239250Y205500D01*
X241500D01*
X242250Y204750D01*
X238500Y203250D02*X239250Y202500D01*
X247500Y208500D02*Y203250D01*
X248250Y202500D01*
X246750Y206250D02*X248250D01*
X249750Y204750D02*Y203250D01*
Y204750D02*X250500Y205500D01*
X252000D01*
X252750Y204750D01*
Y203250D01*
X252000Y202500D02*X252750Y203250D01*
X250500Y202500D02*X252000D01*
X249750Y203250D02*X250500Y202500D01*
X255300Y208500D02*Y203250D01*
X256050Y202500D01*
X254550Y206250D02*X256050D01*
X259800Y205500D02*X260550Y204750D01*
X258300Y205500D02*X259800D01*
X257550Y204750D02*X258300Y205500D01*
X257550Y204750D02*Y203250D01*
X258300Y202500D01*
X260550Y205500D02*Y203250D01*
X261300Y202500D01*
X258300D02*X259800D01*
X260550Y203250D01*
X263100Y208500D02*Y203250D01*
X263850Y202500D01*
G54D85*X360000Y119984D02*X16D01*
X0Y120000D01*
Y6D01*
X360000D01*
Y119984D01*
G54D87*X93675Y-9500D02*X96675D01*
X97425Y-8750D01*
Y-6950D02*Y-8750D01*
X96675Y-6200D02*X97425Y-6950D01*
X94425Y-6200D02*X96675D01*
X94425Y-3500D02*Y-9500D01*
X93675Y-3500D02*X96675D01*
X97425Y-4250D01*
Y-5450D01*
X96675Y-6200D02*X97425Y-5450D01*
X99225Y-7250D02*Y-8750D01*
Y-7250D02*X99975Y-6500D01*
X101475D01*
X102225Y-7250D01*
Y-8750D01*
X101475Y-9500D02*X102225Y-8750D01*
X99975Y-9500D02*X101475D01*
X99225Y-8750D02*X99975Y-9500D01*
X106275Y-6500D02*X107025Y-7250D01*
X104775Y-6500D02*X106275D01*
X104025Y-7250D02*X104775Y-6500D01*
X104025Y-7250D02*Y-8750D01*
X104775Y-9500D01*
X107025Y-6500D02*Y-8750D01*
X107775Y-9500D01*
X104775D02*X106275D01*
X107025Y-8750D01*
X110325Y-7250D02*Y-9500D01*
Y-7250D02*X111075Y-6500D01*
X112575D01*
X109575D02*X110325Y-7250D01*
X117375Y-3500D02*Y-9500D01*
X116625D02*X117375Y-8750D01*
X115125Y-9500D02*X116625D01*
X114375Y-8750D02*X115125Y-9500D01*
X114375Y-7250D02*Y-8750D01*
Y-7250D02*X115125Y-6500D01*
X116625D01*
X117375Y-7250D01*
X121875D02*Y-8750D01*
Y-7250D02*X122625Y-6500D01*
X124125D01*
X124875Y-7250D01*
Y-8750D01*
X124125Y-9500D02*X124875Y-8750D01*
X122625Y-9500D02*X124125D01*
X121875Y-8750D02*X122625Y-9500D01*
X126675Y-6500D02*Y-8750D01*
X127425Y-9500D01*
X128925D01*
X129675Y-8750D01*
Y-6500D02*Y-8750D01*
X132225Y-3500D02*Y-8750D01*
X132975Y-9500D01*
X131475Y-5750D02*X132975D01*
X134475Y-3500D02*Y-8750D01*
X135225Y-9500D01*
G54D88*X136725Y-5000D02*Y-5150D01*
G54D87*Y-7250D02*Y-9500D01*
X138975Y-7250D02*Y-9500D01*
Y-7250D02*X139725Y-6500D01*
X140475D01*
X141225Y-7250D01*
Y-9500D01*
X138225Y-6500D02*X138975Y-7250D01*
X143775Y-9500D02*X146025D01*
X143025Y-8750D02*X143775Y-9500D01*
X143025Y-7250D02*Y-8750D01*
Y-7250D02*X143775Y-6500D01*
X145275D01*
X146025Y-7250D01*
X143025Y-8000D02*X146025D01*
Y-7250D02*Y-8000D01*
G54D88*X150525Y-5000D02*Y-5150D01*
G54D87*Y-7250D02*Y-9500D01*
X152775D02*X155025D01*
X155775Y-8750D01*
X155025Y-8000D02*X155775Y-8750D01*
X152775Y-8000D02*X155025D01*
X152025Y-7250D02*X152775Y-8000D01*
X152025Y-7250D02*X152775Y-6500D01*
X155025D01*
X155775Y-7250D01*
X152025Y-8750D02*X152775Y-9500D01*
X161025Y-3500D02*Y-8750D01*
X161775Y-9500D01*
X160275Y-5750D02*X161775D01*
X163275Y-3500D02*Y-9500D01*
Y-7250D02*X164025Y-6500D01*
X165525D01*
X166275Y-7250D01*
Y-9500D01*
X168825D02*X171075D01*
X168075Y-8750D02*X168825Y-9500D01*
X168075Y-7250D02*Y-8750D01*
Y-7250D02*X168825Y-6500D01*
X170325D01*
X171075Y-7250D01*
X168075Y-8000D02*X171075D01*
Y-7250D02*Y-8000D01*
X176325Y-6500D02*X178575D01*
X175575Y-7250D02*X176325Y-6500D01*
X175575Y-7250D02*Y-8750D01*
X176325Y-9500D01*
X178575D01*
X181125D02*X183375D01*
X180375Y-8750D02*X181125Y-9500D01*
X180375Y-7250D02*Y-8750D01*
Y-7250D02*X181125Y-6500D01*
X182625D01*
X183375Y-7250D01*
X180375Y-8000D02*X183375D01*
Y-7250D02*Y-8000D01*
X185925Y-7250D02*Y-9500D01*
Y-7250D02*X186675Y-6500D01*
X187425D01*
X188175Y-7250D01*
Y-9500D01*
X185175Y-6500D02*X185925Y-7250D01*
X190725Y-3500D02*Y-8750D01*
X191475Y-9500D01*
X189975Y-5750D02*X191475D01*
X193725Y-9500D02*X195975D01*
X192975Y-8750D02*X193725Y-9500D01*
X192975Y-7250D02*Y-8750D01*
Y-7250D02*X193725Y-6500D01*
X195225D01*
X195975Y-7250D01*
X192975Y-8000D02*X195975D01*
Y-7250D02*Y-8000D01*
X198525Y-7250D02*Y-9500D01*
Y-7250D02*X199275Y-6500D01*
X200775D01*
X197775D02*X198525Y-7250D01*
X202575Y-3500D02*Y-8750D01*
X203325Y-9500D01*
G54D88*X204825Y-5000D02*Y-5150D01*
G54D87*Y-7250D02*Y-9500D01*
X207075Y-7250D02*Y-9500D01*
Y-7250D02*X207825Y-6500D01*
X208575D01*
X209325Y-7250D01*
Y-9500D01*
X206325Y-6500D02*X207075Y-7250D01*
X211875Y-9500D02*X214125D01*
X211125Y-8750D02*X211875Y-9500D01*
X211125Y-7250D02*Y-8750D01*
Y-7250D02*X211875Y-6500D01*
X213375D01*
X214125Y-7250D01*
X211125Y-8000D02*X214125D01*
Y-7250D02*Y-8000D01*
X218625Y-7250D02*Y-8750D01*
Y-7250D02*X219375Y-6500D01*
X220875D01*
X221625Y-7250D01*
Y-8750D01*
X220875Y-9500D02*X221625Y-8750D01*
X219375Y-9500D02*X220875D01*
X218625Y-8750D02*X219375Y-9500D01*
X224175Y-4250D02*Y-9500D01*
Y-4250D02*X224925Y-3500D01*
X225675D01*
X223425Y-6500D02*X224925D01*
X230625Y-3500D02*Y-8750D01*
X231375Y-9500D01*
X229875Y-5750D02*X231375D01*
X232875Y-3500D02*Y-9500D01*
Y-7250D02*X233625Y-6500D01*
X235125D01*
X235875Y-7250D01*
Y-9500D01*
G54D88*X237675Y-5000D02*Y-5150D01*
G54D87*Y-7250D02*Y-9500D01*
X239925D02*X242175D01*
X242925Y-8750D01*
X242175Y-8000D02*X242925Y-8750D01*
X239925Y-8000D02*X242175D01*
X239175Y-7250D02*X239925Y-8000D01*
X239175Y-7250D02*X239925Y-6500D01*
X242175D01*
X242925Y-7250D01*
X239175Y-8750D02*X239925Y-9500D01*
X248175Y-7250D02*Y-11750D01*
X247425Y-6500D02*X248175Y-7250D01*
X248925Y-6500D01*
X250425D01*
X251175Y-7250D01*
Y-8750D01*
X250425Y-9500D02*X251175Y-8750D01*
X248925Y-9500D02*X250425D01*
X248175Y-8750D02*X248925Y-9500D01*
X255225Y-6500D02*X255975Y-7250D01*
X253725Y-6500D02*X255225D01*
X252975Y-7250D02*X253725Y-6500D01*
X252975Y-7250D02*Y-8750D01*
X253725Y-9500D01*
X255975Y-6500D02*Y-8750D01*
X256725Y-9500D01*
X253725D02*X255225D01*
X255975Y-8750D01*
X259275Y-3500D02*Y-8750D01*
X260025Y-9500D01*
X258525Y-5750D02*X260025D01*
X261525Y-3500D02*Y-9500D01*
Y-7250D02*X262275Y-6500D01*
X263775D01*
X264525Y-7250D01*
Y-9500D01*
X200750Y148500D02*Y142500D01*
X202700Y148500D02*X203750Y147450D01*
Y143550D01*
X202700Y142500D02*X203750Y143550D01*
X200000Y142500D02*X202700D01*
X200000Y148500D02*X202700D01*
X207800Y145500D02*X208550Y144750D01*
X206300Y145500D02*X207800D01*
X205550Y144750D02*X206300Y145500D01*
X205550Y144750D02*Y143250D01*
X206300Y142500D01*
X208550Y145500D02*Y143250D01*
X209300Y142500D01*
X206300D02*X207800D01*
X208550Y143250D01*
X211850Y148500D02*Y143250D01*
X212600Y142500D01*
X211100Y146250D02*X212600D01*
X214850Y142500D02*X217100D01*
X214100Y143250D02*X214850Y142500D01*
X214100Y144750D02*Y143250D01*
Y144750D02*X214850Y145500D01*
X216350D01*
X217100Y144750D01*
X214100Y144000D02*X217100D01*
Y144750D02*Y144000D01*
X218900Y146250D02*X219650D01*
X218900Y144750D02*X219650D01*
X224150Y148500D02*X227150D01*
X225650D02*Y142500D01*
X228950Y145500D02*Y143250D01*
X229700Y142500D01*
X231200D01*
X231950Y143250D01*
Y145500D02*Y143250D01*
X234500Y142500D02*X236750D01*
X233750Y143250D02*X234500Y142500D01*
X233750Y144750D02*Y143250D01*
Y144750D02*X234500Y145500D01*
X236000D01*
X236750Y144750D01*
X233750Y144000D02*X236750D01*
Y144750D02*Y144000D01*
X241250Y147750D02*X242000Y148500D01*
X244250D01*
X245000Y147750D01*
Y146250D01*
X241250Y142500D02*X245000Y146250D01*
X241250Y142500D02*X245000D01*
X246800Y147300D02*X248000Y148500D01*
Y142500D01*
X246800D02*X249050D01*
X254600Y148500D02*X255800D01*
Y143250D01*
X255050Y142500D02*X255800Y143250D01*
X254300Y142500D02*X255050D01*
X253550Y143250D02*X254300Y142500D01*
X253550Y144000D02*Y143250D01*
X257600Y145500D02*Y143250D01*
X258350Y142500D01*
X259850D01*
X260600Y143250D01*
Y145500D02*Y143250D01*
X262400Y148500D02*Y143250D01*
X263150Y142500D01*
X267350Y147750D02*X268100Y148500D01*
X270350D01*
X271100Y147750D01*
Y146250D01*
X267350Y142500D02*X271100Y146250D01*
X267350Y142500D02*X271100D01*
X272900Y143250D02*X273650Y142500D01*
X272900Y147750D02*Y143250D01*
Y147750D02*X273650Y148500D01*
X275150D01*
X275900Y147750D01*
Y143250D01*
X275150Y142500D02*X275900Y143250D01*
X273650Y142500D02*X275150D01*
X272900Y144000D02*X275900Y147000D01*
X277700Y147300D02*X278900Y148500D01*
Y142500D01*
X277700D02*X279950D01*
X281750Y148500D02*X284750D01*
X281750D02*Y145500D01*
X282500Y146250D01*
X284000D01*
X284750Y145500D01*
Y143250D01*
X284000Y142500D02*X284750Y143250D01*
X282500Y142500D02*X284000D01*
X281750Y143250D02*X282500Y142500D01*
X289250Y147300D02*X290450Y148500D01*
Y142500D01*
X289250D02*X291500D01*
X293300Y147300D02*X294500Y148500D01*
Y142500D01*
X293300D02*X295550D01*
X297350Y146250D02*X298100D01*
X297350Y144750D02*X298100D01*
X299900Y147300D02*X301100Y148500D01*
Y142500D01*
X299900D02*X302150D01*
X303950Y143250D02*X304700Y142500D01*
X303950Y144450D02*Y143250D01*
Y144450D02*X305000Y145500D01*
X305900D01*
X306950Y144450D01*
Y143250D01*
X306200Y142500D02*X306950Y143250D01*
X304700Y142500D02*X306200D01*
X303950Y146550D02*X305000Y145500D01*
X303950Y147750D02*Y146550D01*
Y147750D02*X304700Y148500D01*
X306200D01*
X306950Y147750D01*
Y146550D01*
X305900Y145500D02*X306950Y146550D01*
X308750Y146250D02*X309500D01*
X308750Y144750D02*X309500D01*
X311300Y143250D02*X312050Y142500D01*
X311300Y147750D02*Y143250D01*
Y147750D02*X312050Y148500D01*
X313550D01*
X314300Y147750D01*
Y143250D01*
X313550Y142500D02*X314300Y143250D01*
X312050Y142500D02*X313550D01*
X311300Y144000D02*X314300Y147000D01*
X316100Y147300D02*X317300Y148500D01*
Y142500D01*
X316100D02*X318350D01*
X322850Y147000D02*Y142500D01*
Y147000D02*X323900Y148500D01*
X325550D01*
X326600Y147000D01*
Y142500D01*
X322850Y145500D02*X326600D01*
X328400Y148500D02*Y142500D01*
Y148500D02*X330650Y145500D01*
X332900Y148500D01*
Y142500D01*
X340400Y148500D02*X341150Y147750D01*
X338150Y148500D02*X340400D01*
X337400Y147750D02*X338150Y148500D01*
X337400Y147750D02*Y143250D01*
X338150Y142500D01*
X340400D01*
X341150Y143250D01*
Y144750D02*Y143250D01*
X340400Y145500D02*X341150Y144750D01*
X338900Y145500D02*X340400D01*
X342950Y148500D02*Y142500D01*
Y148500D02*X345200Y145500D01*
X347450Y148500D01*
Y142500D01*
X349250Y148500D02*X352250D01*
X350750D02*Y142500D01*
X356750Y148500D02*Y143250D01*
X357500Y142500D01*
X359000D01*
X359750Y143250D01*
Y148500D02*Y143250D01*
X361550Y148500D02*X364550D01*
X363050D02*Y142500D01*
X367400D02*X369350D01*
X366350Y143550D02*X367400Y142500D01*
X366350Y147450D02*Y143550D01*
Y147450D02*X367400Y148500D01*
X369350D01*
X200000Y162000D02*Y157500D01*
Y162000D02*X201050Y163500D01*
X202700D01*
X203750Y162000D01*
Y157500D01*
X200000Y160500D02*X203750D01*
X205550D02*Y158250D01*
X206300Y157500D01*
X207800D01*
X208550Y158250D01*
Y160500D02*Y158250D01*
X211100Y163500D02*Y158250D01*
X211850Y157500D01*
X210350Y161250D02*X211850D01*
X213350Y163500D02*Y157500D01*
Y159750D02*X214100Y160500D01*
X215600D01*
X216350Y159750D01*
Y157500D01*
X218150Y159750D02*Y158250D01*
Y159750D02*X218900Y160500D01*
X220400D01*
X221150Y159750D01*
Y158250D01*
X220400Y157500D02*X221150Y158250D01*
X218900Y157500D02*X220400D01*
X218150Y158250D02*X218900Y157500D01*
X223700Y159750D02*Y157500D01*
Y159750D02*X224450Y160500D01*
X225950D01*
X222950D02*X223700Y159750D01*
X227750Y161250D02*X228500D01*
X227750Y159750D02*X228500D01*
X233750Y163500D02*Y157500D01*
X235700Y163500D02*X236750Y162450D01*
Y158550D01*
X235700Y157500D02*X236750Y158550D01*
X233000Y157500D02*X235700D01*
X233000Y163500D02*X235700D01*
X240800Y160500D02*X241550Y159750D01*
X239300Y160500D02*X240800D01*
X238550Y159750D02*X239300Y160500D01*
X238550Y159750D02*Y158250D01*
X239300Y157500D01*
X241550Y160500D02*Y158250D01*
X242300Y157500D01*
X239300D02*X240800D01*
X241550Y158250D01*
X244100Y160500D02*X245600Y157500D01*
X247100Y160500D02*X245600Y157500D01*
G54D88*X248900Y162000D02*Y161850D01*
G54D87*Y159750D02*Y157500D01*
X253400Y163500D02*Y157500D01*
X252650D02*X253400Y158250D01*
X251150Y157500D02*X252650D01*
X250400Y158250D02*X251150Y157500D01*
X250400Y159750D02*Y158250D01*
Y159750D02*X251150Y160500D01*
X252650D01*
X253400Y159750D01*
X200000Y178500D02*X203000D01*
X201500D02*Y172500D01*
G54D88*X204800Y177000D02*Y176850D01*
G54D87*Y174750D02*Y172500D01*
X207050Y178500D02*Y173250D01*
X207800Y172500D01*
X206300Y176250D02*X207800D01*
X209300Y178500D02*Y173250D01*
X210050Y172500D01*
X212300D02*X214550D01*
X211550Y173250D02*X212300Y172500D01*
X211550Y174750D02*Y173250D01*
Y174750D02*X212300Y175500D01*
X213800D01*
X214550Y174750D01*
X211550Y174000D02*X214550D01*
Y174750D02*Y174000D01*
X216350Y176250D02*X217100D01*
X216350Y174750D02*X217100D01*
X221600Y173250D02*X222350Y172500D01*
X221600Y177750D02*X222350Y178500D01*
X221600Y177750D02*Y173250D01*
X224150Y175500D02*Y173250D01*
X224900Y172500D01*
X226400D01*
X227150Y173250D01*
Y175500D02*Y173250D01*
X229700Y174750D02*Y172500D01*
Y174750D02*X230450Y175500D01*
X231200D01*
X231950Y174750D01*
Y172500D01*
X228950Y175500D02*X229700Y174750D01*
X233750Y178500D02*Y172500D01*
Y174750D02*X236000Y172500D01*
X233750Y174750D02*X235250Y176250D01*
X238550Y174750D02*Y172500D01*
Y174750D02*X239300Y175500D01*
X240050D01*
X240800Y174750D01*
Y172500D01*
X237800Y175500D02*X238550Y174750D01*
X242600D02*Y173250D01*
Y174750D02*X243350Y175500D01*
X244850D01*
X245600Y174750D01*
Y173250D01*
X244850Y172500D02*X245600Y173250D01*
X243350Y172500D02*X244850D01*
X242600Y173250D02*X243350Y172500D01*
X247400Y175500D02*Y173250D01*
X248150Y172500D01*
X248900D01*
X249650Y173250D01*
Y175500D02*Y173250D01*
X250400Y172500D01*
X251150D01*
X251900Y173250D01*
Y175500D02*Y173250D01*
X254450Y174750D02*Y172500D01*
Y174750D02*X255200Y175500D01*
X255950D01*
X256700Y174750D01*
Y172500D01*
X253700Y175500D02*X254450Y174750D01*
X258500Y178500D02*X259250Y177750D01*
Y173250D01*
X258500Y172500D02*X259250Y173250D01*
X263750Y175500D02*X266750D01*
X271250Y178500D02*Y172500D01*
Y178500D02*X274250D01*
X271250Y175800D02*X273500D01*
X278300Y175500D02*X279050Y174750D01*
X276800Y175500D02*X278300D01*
X276050Y174750D02*X276800Y175500D01*
X276050Y174750D02*Y173250D01*
X276800Y172500D01*
X279050Y175500D02*Y173250D01*
X279800Y172500D01*
X276800D02*X278300D01*
X279050Y173250D01*
X281600Y178500D02*Y172500D01*
Y173250D02*X282350Y172500D01*
X283850D01*
X284600Y173250D01*
Y174750D02*Y173250D01*
X283850Y175500D02*X284600Y174750D01*
X282350Y175500D02*X283850D01*
X281600Y174750D02*X282350Y175500D01*
X287150Y174750D02*Y172500D01*
Y174750D02*X287900Y175500D01*
X289400D01*
X286400D02*X287150Y174750D01*
G54D88*X291200Y177000D02*Y176850D01*
G54D87*Y174750D02*Y172500D01*
X293450Y175500D02*X295700D01*
X292700Y174750D02*X293450Y175500D01*
X292700Y174750D02*Y173250D01*
X293450Y172500D01*
X295700D01*
X299750Y175500D02*X300500Y174750D01*
X298250Y175500D02*X299750D01*
X297500Y174750D02*X298250Y175500D01*
X297500Y174750D02*Y173250D01*
X298250Y172500D01*
X300500Y175500D02*Y173250D01*
X301250Y172500D01*
X298250D02*X299750D01*
X300500Y173250D01*
X303800Y178500D02*Y173250D01*
X304550Y172500D01*
X303050Y176250D02*X304550D01*
G54D88*X306050Y177000D02*Y176850D01*
G54D87*Y174750D02*Y172500D01*
X307550Y174750D02*Y173250D01*
Y174750D02*X308300Y175500D01*
X309800D01*
X310550Y174750D01*
Y173250D01*
X309800Y172500D02*X310550Y173250D01*
X308300Y172500D02*X309800D01*
X307550Y173250D02*X308300Y172500D01*
X313100Y174750D02*Y172500D01*
Y174750D02*X313850Y175500D01*
X314600D01*
X315350Y174750D01*
Y172500D01*
X312350Y175500D02*X313100Y174750D01*
X320600Y178500D02*Y172500D01*
X322550Y178500D02*X323600Y177450D01*
Y173550D01*
X322550Y172500D02*X323600Y173550D01*
X319850Y172500D02*X322550D01*
X319850Y178500D02*X322550D01*
X326150Y174750D02*Y172500D01*
Y174750D02*X326900Y175500D01*
X328400D01*
X325400D02*X326150Y174750D01*
X332450Y175500D02*X333200Y174750D01*
X330950Y175500D02*X332450D01*
X330200Y174750D02*X330950Y175500D01*
X330200Y174750D02*Y173250D01*
X330950Y172500D01*
X333200Y175500D02*Y173250D01*
X333950Y172500D01*
X330950D02*X332450D01*
X333200Y173250D01*
X335750Y175500D02*Y173250D01*
X336500Y172500D01*
X337250D01*
X338000Y173250D01*
Y175500D02*Y173250D01*
X338750Y172500D01*
X339500D01*
X340250Y173250D01*
Y175500D02*Y173250D01*
G54D88*X342050Y177000D02*Y176850D01*
G54D87*Y174750D02*Y172500D01*
X344300Y174750D02*Y172500D01*
Y174750D02*X345050Y175500D01*
X345800D01*
X346550Y174750D01*
Y172500D01*
X343550Y175500D02*X344300Y174750D01*
X350600Y175500D02*X351350Y174750D01*
X349100Y175500D02*X350600D01*
X348350Y174750D02*X349100Y175500D01*
X348350Y174750D02*Y173250D01*
X349100Y172500D01*
X350600D01*
X351350Y173250D01*
X348350Y171000D02*X349100Y170250D01*
X350600D01*
X351350Y171000D01*
Y175500D02*Y171000D01*
M02*
