G04 start of page 14 for group -4078 idx -4078 *
G04 Title: (unknown), bottomsilk *
G04 Creator: pcb 1.99z *
G04 CreationDate: Tue 21 Jul 2015 11:18:01 AM GMT UTC *
G04 For: david *
G04 Format: Gerber/RS-274X *
G04 PCB-Dimensions (mil): 3600.00 1200.00 *
G04 PCB-Coordinate-Origin: lower left *
%MOIN*%
%FSLAX25Y25*%
%LNBOTTOMSILK*%
%ADD81C,0.0150*%
%ADD80C,0.0100*%
G54D80*X360000Y119984D02*X16D01*
X0Y120000D01*
Y6D01*
X360000D01*
Y119984D01*
G54D81*X302071Y39819D02*X357071D01*
Y97819D01*
X302071D01*
Y39819D01*
G54D80*X299971Y80419D02*X299471Y80919D01*
X299971Y78919D02*Y80419D01*
X299471Y78419D02*X299971Y78919D01*
X298471Y78419D02*X299471D01*
X298471D02*X297971Y78919D01*
Y80419D01*
X297471Y80919D01*
X296471D02*X297471D01*
X295971Y80419D02*X296471Y80919D01*
X295971Y78919D02*Y80419D01*
X296471Y78419D02*X295971Y78919D01*
X299971Y82119D02*Y83119D01*
X295971Y82619D02*X299971D01*
X295971Y82119D02*Y83119D01*
X299971Y86319D02*X299471Y86819D01*
X299971Y84819D02*Y86319D01*
X299471Y84319D02*X299971Y84819D01*
X296471Y84319D02*X299471D01*
X296471D02*X295971Y84819D01*
Y86319D01*
X296471Y86819D01*
X297471D01*
X297971Y86319D02*X297471Y86819D01*
X297971Y85319D02*Y86319D01*
X296471Y88019D02*X299471D01*
X299971Y88519D01*
Y89519D01*
X299471Y90019D01*
X296471D02*X299471D01*
X295971Y89519D02*X296471Y90019D01*
X295971Y88519D02*Y89519D01*
X296471Y88019D02*X295971Y88519D01*
X296471Y91219D02*X299971D01*
X296471D02*X295971Y91719D01*
Y92719D01*
X296471Y93219D01*
X299971D01*
Y94419D02*Y96419D01*
X295971Y95419D02*X299971D01*
M02*
