G04 start of page 14 for group -4078 idx -4078 *
G04 Title: (unknown), bottomsilk *
G04 Creator: pcb 1.99z *
G04 CreationDate: Tue 21 Jul 2015 11:24:29 AM GMT UTC *
G04 For: david *
G04 Format: Gerber/RS-274X *
G04 PCB-Dimensions (mm): 31.75 26.42 *
G04 PCB-Coordinate-Origin: lower left *
%MOMM*%
%FSLAX43Y43*%
%LNBOTTOMSILK*%
%ADD98C,0.254*%
%ADD97C,0.508*%
G54D97*X1524Y3175D02*Y5715D01*
X4064Y3175D02*Y5715D01*
G54D98*X1524Y4445D02*X4064D01*
G54D97*X1524Y3175D02*G75*G03X4064Y3175I1270J0D01*G01*
Y5715D02*G75*G03X1524Y5715I-1270J0D01*G01*
G54D98*X19177Y3556D02*X20447D01*
X15367D02*X16637D01*
Y3962D02*X19177D01*
X16637D02*Y3150D01*
X19177D01*
Y3962D02*Y3150D01*
X15367Y25781D02*Y11811D01*
X635Y25781D02*X15367D01*
X635D02*Y11811D01*
X15367D01*
X30861Y25781D02*Y11811D01*
X16129Y25781D02*X30861D01*
X16129D02*Y11811D01*
X30861D01*
X20447Y4470D02*Y5486D01*
X19939D02*X20447D01*
X20066Y5029D02*X20447D01*
X19634Y5283D02*X19431Y5486D01*
Y4470D02*Y5486D01*
X19253Y4470D02*X19634D01*
X14478Y11303D02*X14351Y11176D01*
X14478Y11303D02*X14859D01*
X14986Y11176D02*X14859Y11303D01*
X14986Y10922D02*Y11176D01*
Y10922D02*X14859Y10795D01*
X14478D02*X14859D01*
X14478D02*X14351Y10668D01*
Y10414D02*Y10668D01*
X14478Y10287D02*X14351Y10414D01*
X14478Y10287D02*X14859D01*
X14986Y10414D02*X14859Y10287D01*
X13792Y11303D02*X14046D01*
X13919Y10287D02*Y11303D01*
X13792Y10287D02*X14046D01*
X12979Y11303D02*X12852Y11176D01*
X12979Y11303D02*X13360D01*
X13487Y11176D02*X13360Y11303D01*
X13487Y10414D02*Y11176D01*
Y10414D02*X13360Y10287D01*
X12979D02*X13360D01*
X12979D02*X12852Y10414D01*
Y10668D01*
X12979Y10795D02*X12852Y10668D01*
X12979Y10795D02*X13233D01*
X12294Y11303D02*X12548D01*
X12421Y10287D02*Y11303D01*
X12294Y10287D02*X12548D01*
X11989D02*Y11303D01*
X11354Y10287D01*
Y11303D01*
X20320Y11430D02*X20193Y11303D01*
X20320Y11430D02*X20701D01*
X20828Y11303D02*X20701Y11430D01*
X20828Y11049D02*Y11303D01*
Y11049D02*X20701Y10922D01*
X20320D02*X20701D01*
X20320D02*X20193Y10795D01*
Y10541D02*Y10795D01*
X20320Y10414D02*X20193Y10541D01*
X20320Y10414D02*X20701D01*
X20828Y10541D02*X20701Y10414D01*
X19634Y11430D02*X19888D01*
X19761Y10414D02*Y11430D01*
X19634Y10414D02*X19888D01*
X18821Y11430D02*X18694Y11303D01*
X18821Y11430D02*X19202D01*
X19329Y11303D02*X19202Y11430D01*
X19329Y10541D02*Y11303D01*
Y10541D02*X19202Y10414D01*
X18821D02*X19202D01*
X18821D02*X18694Y10541D01*
Y10795D01*
X18821Y10922D02*X18694Y10795D01*
X18821Y10922D02*X19075D01*
X18390Y10541D02*Y11303D01*
X18263Y11430D01*
X18009D02*X18263D01*
X18009D02*X17882Y11303D01*
Y10541D02*Y11303D01*
X18009Y10414D02*X17882Y10541D01*
X18009Y10414D02*X18263D01*
X18390Y10541D02*X18263Y10414D01*
X17577Y10541D02*Y11430D01*
Y10541D02*X17450Y10414D01*
X17196D02*X17450D01*
X17196D02*X17069Y10541D01*
Y11430D01*
X16256D02*X16764D01*
X16510Y10414D02*Y11430D01*
X4826Y3175D02*X5842D01*
Y3048D02*Y3556D01*
X5715Y3683D01*
X5461D02*X5715D01*
X5334Y3556D02*X5461Y3683D01*
X5334Y3175D02*Y3556D01*
Y3988D02*X5842D01*
X5334D02*X4826Y4115D01*
X5334Y4369D01*
X4826Y4623D01*
X5334Y4750D01*
X5842D01*
Y5055D02*Y5563D01*
X5715Y5690D01*
X5461D02*X5715D01*
X5334Y5563D02*X5461Y5690D01*
X5334Y5182D02*Y5563D01*
X4826Y5182D02*X5842D01*
X5334Y5385D02*X4826Y5690D01*
M02*
