G04 start of page 11 for group -4063 idx -4063 *
G04 Title: (unknown), componentmask *
G04 Creator: pcb 1.99z *
G04 CreationDate: Tue 21 Jul 2015 11:24:29 AM GMT UTC *
G04 For: david *
G04 Format: Gerber/RS-274X *
G04 PCB-Dimensions (mm): 31.75 26.42 *
G04 PCB-Coordinate-Origin: lower left *
%MOMM*%
%FSLAX43Y43*%
%LNTOPMASK*%
%ADD89R,2.203X2.203*%
%ADD88R,1.452X1.452*%
%ADD87C,1.549*%
%ADD86C,1.829*%
%ADD85C,2.692*%
%ADD84C,1.676*%
%ADD83C,0.002*%
G54D83*G36*
X19672Y4331D02*Y2781D01*
X21222D01*
Y4331D01*
X19672D01*
G37*
G36*
X7163Y14173D02*Y12497D01*
X8839D01*
Y14173D01*
X7163D01*
G37*
G54D84*X10541Y13335D03*
G54D85*X13081Y18415D03*
X18415D03*
G54D83*G36*
X1880Y4089D02*Y2261D01*
X3708D01*
Y4089D01*
X1880D01*
G37*
G54D86*X2794Y5715D03*
G54D87*X15367Y3556D03*
G54D85*X2921Y18415D03*
G54D83*G36*
X22657Y14173D02*Y12497D01*
X24333D01*
Y14173D01*
X22657D01*
G37*
G54D84*X26035Y13335D03*
G54D85*X28575Y18415D03*
G54D88*X14964Y13181D02*Y12981D01*
X16764Y13181D02*Y12981D01*
X25422Y8736D02*Y8536D01*
X23622Y8736D02*Y8536D01*
G54D89*X7874Y3661D02*Y3451D01*
X12254Y3661D02*Y3451D01*
G54D88*X5361Y5483D02*X5561D01*
X5361Y3683D02*X5561D01*
X14955Y8555D02*Y7955D01*
X20955Y8555D02*Y7955D01*
M02*
